
<svg xmlns="http://www.w3.org/2000/svg" version="1.1" xmlns:xlink="http://www.w3.org/1999/xlink" preserveAspectRatio="none" x="0px" y="0px" width="243px" height="328px" viewBox="0 0 243 328">
<defs>
<g id="Layer0_0_FILL">
<path fill="#000000" stroke="none" d="
M 235.95 7
Q 228.95 0 219 0
L 24 0
Q 14.05 0 7 7 0 14.05 0 24
L 0 304
Q 0 313.95 7 320.95 14.05 328 24 328
L 219 328
Q 228.95 328 235.95 320.95 243 313.95 243 304
L 243 24
Q 243 14.05 235.95 7
M 217.6 24.9
Q 224.65 31.95 224.65 41.9
L 224.65 93.75
Q 224.65 103.7 217.6 110.7 210.6 117.75 200.65 117.75
L 43.2 117.75
Q 33.25 117.75 26.2 110.7 19.2 103.7 19.2 93.75
L 19.2 41.9
Q 19.2 31.95 26.2 24.9 33.25 17.9 43.2 17.9
L 200.65 17.9
Q 210.6 17.9 217.6 24.9
M 192.3 148.45
L 201.95 148.45
Q 211.35 148.45 218 155.1 224.65 161.75 224.65 171.2
L 224.65 171.25
Q 224.65 180.65 218 187.3 211.35 193.95 201.95 193.95
L 192.3 193.95
Q 182.9 193.95 176.25 187.3 169.6 180.65 169.6 171.25
L 169.6 171.2
Q 169.6 161.75 176.25 155.1 182.9 148.45 192.3 148.45
M 45.1 148.45
L 54.75 148.45
Q 64.15 148.45 70.8 155.1 77.45 161.75 77.45 171.2
L 77.45 171.25
Q 77.45 180.65 70.8 187.3 64.15 193.95 54.75 193.95
L 45.1 193.95
Q 35.7 193.95 29.05 187.3 22.4 180.65 22.4 171.25
L 22.4 171.2
Q 22.4 161.75 29.05 155.1 35.7 148.45 45.1 148.45
M 116.75 193.95
Q 107.35 193.95 100.7 187.3 94.05 180.65 94.05 171.25
L 94.05 171.2
Q 94.05 161.75 100.7 155.1 107.35 148.45 116.75 148.45
L 126.4 148.45
Q 135.8 148.45 142.45 155.1 149.1 161.75 149.1 171.2
L 149.1 171.25
Q 149.1 180.65 142.45 187.3 135.8 193.95 126.4 193.95
L 116.75 193.95
M 126.4 206.1
Q 135.8 206.1 142.45 212.75 149.1 219.4 149.1 228.8
L 149.1 228.85
Q 149.1 238.25 142.45 244.9 135.8 251.55 126.4 251.55
L 116.75 251.55
Q 107.35 251.55 100.7 244.9 94.05 238.25 94.05 228.85
L 94.05 228.8
Q 94.05 219.4 100.7 212.75 107.35 206.1 116.75 206.1
L 126.4 206.1
M 100.7 271.65
Q 107.35 265 116.75 265
L 126.4 265
Q 135.8 265 142.45 271.65 149.1 278.3 149.1 287.7
L 149.1 287.75
Q 149.1 297.15 142.45 303.8 135.8 310.45 126.4 310.45
L 116.75 310.45
Q 107.35 310.45 100.7 303.8 94.05 297.15 94.05 287.75
L 94.05 287.7
Q 94.05 278.3 100.7 271.65
M 54.75 206.1
Q 64.15 206.1 70.8 212.75 77.45 219.4 77.45 228.8
L 77.45 228.85
Q 77.45 238.25 70.8 244.9 64.15 251.55 54.75 251.55
L 45.1 251.55
Q 35.7 251.55 29.05 244.9 22.4 238.25 22.4 228.85
L 22.4 228.8
Q 22.4 219.4 29.05 212.75 35.7 206.1 45.1 206.1
L 54.75 206.1
M 22.4 287.7
Q 22.4 278.3 29.05 271.65 35.7 265 45.1 265
L 54.75 265
Q 64.15 265 70.8 271.65 77.45 278.3 77.45 287.7
L 77.45 287.75
Q 77.45 297.15 70.8 303.8 64.15 310.45 54.75 310.45
L 45.1 310.45
Q 35.7 310.45 29.05 303.8 22.4 297.15 22.4 287.75
L 22.4 287.7
M 224.65 228.85
Q 224.65 238.25 218 244.9 211.35 251.55 201.95 251.55
L 192.3 251.55
Q 182.9 251.55 176.25 244.9 169.6 238.25 169.6 228.85
L 169.6 228.8
Q 169.6 219.4 176.25 212.75 182.9 206.1 192.3 206.1
L 201.95 206.1
Q 211.35 206.1 218 212.75 224.65 219.4 224.65 228.8
L 224.65 228.85
M 176.25 271.65
Q 182.9 265 192.3 265
L 201.95 265
Q 211.35 265 218 271.65 224.65 278.3 224.65 287.7
L 224.65 287.75
Q 224.65 297.15 218 303.8 211.35 310.45 201.95 310.45
L 192.3 310.45
Q 182.9 310.45 176.25 303.8 169.6 297.15 169.6 287.75
L 169.6 287.7
Q 169.6 278.3 176.25 271.65 Z"/>

<path fill="#FFFFFF" stroke="none" d="
M 70.8 212.75
Q 64.15 206.1 54.75 206.1
L 45.1 206.1
Q 35.7 206.1 29.05 212.75 22.4 219.4 22.4 228.8
L 22.4 228.85
Q 22.4 238.25 29.05 244.9 35.7 251.55 45.1 251.55
L 54.75 251.55
Q 64.15 251.55 70.8 244.9 77.45 238.25 77.45 228.85
L 77.45 228.8
Q 77.45 219.4 70.8 212.75 Z"/>
</g>
</defs>

<g transform="matrix( 1, 0, 0, 1, 0,0) ">
<use xlink:href="#Layer0_0_FILL"/>
</g>
</svg>
